<svg width="128" height="128" viewBox="0 0 128 128" fill="none" xmlns="http://www.w3.org/2000/svg">
<path d="M57.0075 65.1098C62.9471 65.1098 67.7621 60.2948 67.7621 54.3552C67.7621 48.4156 62.9471 43.6006 57.0075 43.6006C51.0679 43.6006 46.2529 48.4156 46.2529 54.3552C46.2529 60.2948 51.0679 65.1098 57.0075 65.1098Z" fill="#75DDF9"/>
<path d="M57.0074 58.0096C59.0257 58.0096 60.6618 56.3735 60.6618 54.3552C60.6618 52.3369 59.0257 50.7008 57.0074 50.7008C54.9892 50.7008 53.353 52.3369 53.353 54.3552C53.353 56.3735 54.9892 58.0096 57.0074 58.0096Z" fill="white"/>
<path d="M90.5241 59.6557C93.4515 59.6557 95.8246 57.2826 95.8246 54.3552C95.8246 51.4278 93.4515 49.0547 90.5241 49.0547C87.5967 49.0547 85.2236 51.4278 85.2236 54.3552C85.2236 57.2826 87.5967 59.6557 90.5241 59.6557Z" fill="#75DDF9"/>
<path d="M90.5241 56.1562C91.5187 56.1562 92.3251 55.3498 92.3251 54.3552C92.3251 53.3605 91.5187 52.5542 90.5241 52.5542C89.5295 52.5542 88.7231 53.3605 88.7231 54.3552C88.7231 55.3498 89.5295 56.1562 90.5241 56.1562Z" fill="white"/>
<path d="M50.2628 71.936C50.1272 71.7227 49.9842 71.5161 49.834 71.3165C49.6634 71.091 49.5503 70.8274 49.5045 70.5483C49.4588 70.2693 49.4819 69.9833 49.5717 69.7152L50.4677 67.0426C50.5987 66.6492 50.5854 66.222 50.4302 65.8376C50.2749 65.4532 49.9878 65.1366 49.6203 64.9446L48.2993 64.256C47.9309 64.0651 47.5065 64.0118 47.1023 64.1057C46.6981 64.1995 46.3406 64.4343 46.0939 64.768L44.4069 67.0246C44.236 67.2497 44.0129 67.4299 43.757 67.5496C43.501 67.6694 43.2197 67.7251 42.9374 67.712C42.4356 67.6913 41.933 67.7123 41.4347 67.7747C41.1542 67.8091 40.8696 67.7748 40.6053 67.6747C40.3411 67.5745 40.1051 67.4116 39.9179 67.2L38.0491 65.0931C37.774 64.7831 37.3975 64.5812 36.987 64.5235C36.5766 64.4658 36.159 64.5561 35.8091 64.7782L34.5598 65.5782C34.2098 65.8002 33.9503 66.1396 33.8278 66.5355C33.7054 66.9315 33.728 67.3581 33.8917 67.7389L35.0014 70.3257C35.1129 70.5856 35.1595 70.8687 35.1372 71.1505C35.1149 71.4324 35.0243 71.7046 34.8734 71.9437C34.605 72.3685 34.3717 72.8146 34.1758 73.2774C34.065 73.5372 33.8927 73.7662 33.6737 73.9446C33.4547 74.123 33.1957 74.2454 32.9189 74.3014L30.1566 74.88C29.7506 74.9632 29.3874 75.1881 29.132 75.5146C28.8767 75.841 28.7457 76.2476 28.7627 76.6617L28.8254 78.1453C28.8414 78.5601 29.0049 78.9556 29.2865 79.2606C29.568 79.5657 29.9492 79.7602 30.3614 79.8093L33.1582 80.1421C33.439 80.1757 33.7075 80.277 33.9405 80.4373C34.1735 80.5976 34.3641 80.8121 34.4958 81.0624C34.611 81.2838 34.7377 81.5002 34.8734 81.7152C35.0091 81.9302 35.1524 82.135 35.3022 82.3334C35.4726 82.5593 35.5855 82.8231 35.6312 83.1023C35.6769 83.3815 35.6541 83.6676 35.5646 83.936L34.6686 86.6073C34.5377 87.0009 34.5511 87.4282 34.7063 87.8127C34.8616 88.1973 35.1486 88.5142 35.516 88.7066L36.8305 89.3939C37.1996 89.5854 37.6249 89.639 38.0299 89.5449C38.4349 89.4508 38.793 89.2152 39.0398 88.8806L40.7269 86.624C40.8965 86.3972 41.1188 86.2152 41.3747 86.0936C41.6305 85.9721 41.912 85.9147 42.195 85.9264C42.6972 85.947 43.2003 85.9261 43.699 85.8637C43.9795 85.8294 44.2641 85.8638 44.5283 85.9639C44.7926 86.064 45.0285 86.2268 45.2158 86.4384L47.0833 88.544C47.3585 88.8543 47.7351 89.0565 48.1458 89.1145C48.5565 89.1724 48.9744 89.0822 49.3246 88.8601L50.5765 88.0653C50.9266 87.8431 51.1862 87.5036 51.3089 87.1075C51.4316 86.7113 51.4092 86.2845 51.2459 85.9034L50.1361 83.3165C50.0247 83.0568 49.9781 82.774 50.0004 82.4923C50.0227 82.2107 50.1132 81.9387 50.2641 81.6998C50.5331 81.2755 50.766 80.8293 50.9605 80.3661C51.0709 80.1041 51.2437 79.8731 51.4639 79.6932C51.6841 79.5134 51.945 79.3902 52.2238 79.3344L54.9835 78.7699C55.3895 78.6864 55.7526 78.4612 56.0077 78.1345C56.2628 77.8078 56.3934 77.401 56.3761 76.9869L56.3147 75.5046C56.2984 75.0899 56.1349 74.6945 55.8534 74.3896C55.5718 74.0846 55.1908 73.8899 54.7787 73.8406L51.9819 73.5078C51.701 73.4746 51.4324 73.3734 51.1993 73.213C50.9663 73.0527 50.7758 72.838 50.6443 72.5875C50.5257 72.3699 50.3985 72.1527 50.2628 71.936Z" fill="#F9CE46"/>
<path d="M42.5688 81.1635C44.9667 81.1635 46.9106 79.2197 46.9106 76.8218C46.9106 74.4239 44.9667 72.48 42.5688 72.48C40.1709 72.48 38.2271 74.4239 38.2271 76.8218C38.2271 79.2197 40.1709 81.1635 42.5688 81.1635Z" fill="#FF7348"/>
<path d="M40.4482 73.5027C42.6805 72.1485 45.6808 73.2186 46.3758 75.7965C47.1438 78.6291 44.5723 81.2365 41.7307 80.6707C41.2264 80.5709 41.0101 81.344 41.517 81.4387C44.8846 82.1082 47.9694 79.1552 47.1912 75.7427C46.468 72.5722 42.7675 71.1514 40.0437 72.7987C39.6021 73.0662 40.0053 73.76 40.4482 73.4925V73.5027Z" fill="#112870"/>
<path d="M12.3688 20.384C10.4861 36.0304 10.1004 51.8208 11.2168 67.5405C11.4817 71.2179 11.7633 74.9159 12.2958 78.5664C12.7349 81.5731 13.4478 84.6656 15.1669 87.2269C18.5973 92.3584 24.9461 93.1712 30.6395 93.2032C38.3656 93.248 46.1006 93.0752 53.8267 92.9959L77.5579 92.7731L101.546 92.544C104.946 92.512 108.673 92.8218 111.891 91.5098C114.714 90.3578 116.686 87.9079 117.866 85.1623C119.253 81.9341 119.53 78.3783 119.454 74.9018C119.375 71.3664 119.049 67.8336 118.858 64.3047C118.462 56.9421 118.183 49.5731 117.834 42.208C117.662 38.56 117.473 34.912 117.247 31.2691C117.132 29.408 117.004 27.5477 116.863 25.6883C116.757 24.2803 116.526 22.9031 116.009 21.5783C115.056 19.1386 113.34 17.0035 111.061 15.6903C109.17 14.5984 107.148 14.368 105.023 14.1709C97.0613 13.4311 89.0792 12.8909 81.0945 12.4851C71.5905 12 62.0686 11.7095 52.548 11.776C44.1 11.8336 35.5893 12.0832 27.2206 13.312C24.2369 13.7472 21.2289 14.3002 18.3745 15.2973C16.5301 15.9373 14.4833 16.7987 13.2341 18.3693C12.7636 18.9481 12.4639 19.6467 12.3688 20.3866C12.3035 20.8986 13.1061 20.8986 13.1701 20.3866C13.3557 18.9325 14.7765 17.8522 16.0629 17.1546C18.2683 15.9578 20.7835 15.3293 23.2219 14.8186C30.7189 13.2455 38.491 12.8986 46.1339 12.6861C55.4267 12.4301 64.731 12.6042 74.0187 12.969C82.4667 13.3009 90.9036 13.8052 99.3294 14.4819C101.028 14.6185 102.726 14.764 104.424 14.9184C106.419 15.1015 108.403 15.209 110.225 16.1447C112.634 17.3824 114.465 19.5891 115.37 22.1299C115.864 23.5187 116.01 24.9242 116.122 26.3847C116.25 28.1656 116.369 29.952 116.48 31.744C116.923 38.9645 117.22 46.1939 117.54 53.4221C117.697 56.9754 117.859 60.5299 118.052 64.0819C118.236 67.5251 118.54 70.9683 118.646 74.4141C118.837 80.6003 117.648 89.0535 110.65 91.1014C108.986 91.5904 107.23 91.6762 105.5 91.7069C103.632 91.7389 101.764 91.744 99.8952 91.7619L88.2843 91.8707L41.8433 92.3072C38.1761 92.3418 34.5064 92.4147 30.8353 92.4032C27.9246 92.3943 24.955 92.2483 22.1608 91.3626C19.3448 90.4666 16.9486 88.7296 15.451 86.1581C13.8446 83.401 13.275 80.1421 12.9013 77.0215C11.0773 61.9584 10.948 46.6099 12.0872 31.488C12.3662 27.7786 12.7272 24.076 13.1701 20.3802C13.2315 19.8733 12.4289 19.8771 12.3688 20.384Z" fill="#112870"/>
<path d="M15.5393 29.353C27.154 29.0752 38.7598 28.5632 50.3719 28.2189C62.1146 27.8707 73.8612 27.7799 85.6065 28.1178C93.81 28.3533 102.007 28.777 110.195 29.3299C110.707 29.3645 110.707 28.5619 110.195 28.5274C96.5454 27.6045 82.8724 27.0682 69.1918 27.0938C58.0199 27.1143 46.857 27.5149 35.6942 27.9181C28.9767 28.16 22.2542 28.3904 15.5393 28.5504C15.0273 28.5632 15.0273 29.3658 15.5393 29.353Z" fill="#FF7348"/>
<path d="M19.2872 21.4477V21.2301C19.295 21.0695 19.2553 20.9101 19.1733 20.7718C19.1183 20.6218 19.0241 20.4892 18.9007 20.3878C18.7816 20.2719 18.6356 20.1874 18.4757 20.1421C18.3159 20.0667 18.1402 20.0316 17.9637 20.0397C17.6206 20.0382 17.2888 20.162 17.0306 20.3878C16.9131 20.4951 16.8185 20.625 16.7526 20.7697C16.6866 20.9145 16.6505 21.0711 16.6466 21.2301V21.4477C16.6383 21.6087 16.678 21.7686 16.7605 21.9072C16.8146 22.0577 16.9089 22.1905 17.0331 22.2912C17.1522 22.4074 17.2982 22.4922 17.4581 22.5382C17.6178 22.6137 17.7936 22.6489 17.9701 22.6406C18.3133 22.6418 18.6452 22.5175 18.9032 22.2912C19.0207 22.1839 19.1152 22.054 19.1812 21.9093C19.2472 21.7646 19.2833 21.608 19.2872 21.449V21.4477Z" fill="#A89FFF"/>
<path d="M24.0092 22.6394C25.7065 22.6394 25.7104 20.2573 24.0092 20.2573C22.3081 20.2573 22.3081 22.6394 24.0092 22.6394Z" fill="#A89FFF"/>
<path d="M29.3252 22.6394C31.0237 22.6394 31.0263 20.2573 29.3252 20.2573C27.624 20.2573 27.624 22.6394 29.3252 22.6394Z" fill="#A89FFF"/>
<path d="M101.809 22.3322H105.009C105.521 22.3322 105.521 21.5296 105.009 21.5296H101.809C101.297 21.5296 101.297 22.3322 101.809 22.3322Z" fill="#4081F4"/>
<path d="M102.362 82.4973C102.362 82.4973 101.286 94.633 96.7783 102.024C92.3418 100.134 84.9524 96.5939 80.8013 96.6848C76.6503 96.7757 62.7533 82.0518 62.8186 77.1008C63.2026 74.3117 71.9988 64.0922 84.4826 64.5875C89.056 71.7862 102.362 82.4973 102.362 82.4973Z" fill="#FC92C3"/>
<path d="M80.5567 96.4531L61.7139 67.6531L63.7619 65.9891L67.2998 63.1565L69.9532 61.0317L93.5603 86.2323C94.3432 87.0678 94.9448 88.0563 95.3273 89.1355C95.7098 90.2148 95.8648 91.3615 95.7827 92.5035C95.7006 93.6456 95.3831 94.7583 94.8502 95.7718C94.3173 96.7852 93.5804 97.6774 92.686 98.3923C91.7826 99.1142 90.7384 99.6395 89.6202 99.9343C88.502 100.229 87.3345 100.287 86.1926 100.105C85.0507 99.9221 83.9595 99.503 82.989 98.8741C82.0185 98.2453 81.19 97.4207 80.5567 96.4531Z" fill="#4081F4"/>
<path d="M103.013 69.8624C103.013 69.8624 80.5199 59.3536 74.5397 67.8566C73.0037 70.5446 77.3416 74.1747 83.7992 74.5293C83.9707 78.8314 87.6495 86.4704 100.791 91.5814C102.199 88.1779 103.694 77.769 103.013 69.8624Z" fill="#FC92C3"/>
<path d="M76.7439 65.3978C75.3641 66.3642 73.6476 67.7965 74.2569 69.7101C74.7689 71.3203 76.6197 72.5261 78.0444 73.239C78.8653 73.6437 79.7171 73.9826 80.5916 74.2528C81.046 74.3974 81.5042 74.5267 81.965 74.647C82.1609 74.6995 82.358 74.7482 82.5551 74.7981C82.9391 74.8954 83.0261 75.0195 83.181 75.3907C84.0041 77.3606 84.6338 79.3945 85.7871 81.2134C87.0338 83.1808 88.4943 84.9843 90.2556 86.5126C90.6396 86.8506 91.213 86.2848 90.8226 85.9456C89.3697 84.668 88.0873 83.2088 87.0069 81.6038C85.9049 80 85.1202 78.2515 84.4098 76.4365C84.2332 75.9821 84.0719 75.5238 83.917 75.0618C83.8197 74.7699 83.7289 74.4845 83.4767 74.2938C83.2002 74.08 82.8021 74.0378 82.4732 73.9546C82.0465 73.8453 81.6198 73.7284 81.1932 73.6038C79.5292 73.1072 77.8652 72.4377 76.5199 71.3165C75.7378 70.656 74.7804 69.76 74.9762 68.6387C75.181 67.465 76.2396 66.7277 77.1522 66.0902C77.5721 65.7971 77.1714 65.1008 76.7477 65.3978H76.7439Z" fill="#112870"/>
<path d="M77.0035 67.5443C77.2468 67.8865 77.5823 68.1524 77.971 68.3111C78.3597 68.4697 78.7855 68.5146 79.1987 68.4403C80.2599 68.2765 80.9997 67.4406 81.6307 66.6483C81.9507 66.249 81.3863 65.6781 81.0637 66.0813C80.3635 66.953 78.7187 68.5926 77.6896 67.1347C77.3939 66.7162 76.6989 67.1168 76.9971 67.5392L77.0035 67.5443Z" fill="white"/>
<path d="M64.8527 73.6C64.8527 73.6 59.2002 78.9095 63.5612 83.5533C66.605 86.7047 79.5522 77.5744 76.6274 74.1645C73.7295 70.8045 68.4354 74.6765 66.5909 76.1779" fill="#FC92C3"/>
<path d="M76.7236 76.672C76.7236 76.672 79.7111 75.9437 81.4878 78.4166C83.2644 80.8896 75.8366 85.9686 70.8356 89.4246C67.7726 91.0656 63.8046 86.793 66.8919 83.2653C69.9793 79.7376 76.7236 76.672 76.7236 76.672Z" fill="#FC92C3"/>
<path d="M80.4087 81.8586C80.4087 81.8586 82.1687 80.896 83.9684 83.0374C85.7681 85.1789 82.3582 88.3584 79.7444 90.5984C77.1306 92.8384 73.9498 94.8634 72.3729 93.1239C70.7959 91.3843 70.3018 89.257 71.9889 87.4509C73.6759 85.6448 80.4087 81.8586 80.4087 81.8586Z" fill="#FC92C3"/>
<path d="M82.3361 86.88C82.3361 86.88 84.7361 85.9213 86.9121 89.2762C89.0881 92.631 82.2388 96.2368 79.3191 97.5424C76.3994 98.848 73.3441 93.504 76.0397 91.415C78.7354 89.3261 82.3361 86.88 82.3361 86.88Z" fill="#FC92C3"/>
<path d="M66.5076 76.544C67.4497 75.8707 68.3866 75.1898 69.3364 74.528C70.2401 73.8982 71.1898 73.2838 72.2637 72.992C74.2695 72.4518 76.7578 73.5654 76.2458 75.9782C75.7748 78.199 73.2711 79.7069 71.5226 80.8755C70.5644 81.5167 69.5746 82.1092 68.5568 82.6509C67.474 83.2269 66.2861 83.8502 65.0202 83.6608C64.5082 83.5853 64.297 84.3584 64.8065 84.4288C66.8826 84.7398 68.8602 83.4547 70.5664 82.4269C72.3828 81.3325 74.3617 80.0781 75.7773 78.4755C76.9409 77.1584 77.6833 75.1142 76.5697 73.5283C75.625 72.1856 73.7844 71.8106 72.2586 72.16C69.9546 72.6886 67.9821 74.5024 66.1044 75.8426C65.6871 76.1395 66.0877 76.8358 66.5088 76.535L66.5076 76.544Z" fill="#112870"/>
<path d="M77.3542 77.1213C78.752 77.3286 81.1123 78.2566 81.1162 79.9757C81.1162 81.7677 78.9978 82.8185 77.7242 83.6877L73.1162 86.807C72.3482 87.328 71.5802 87.8515 70.8122 88.3673C70.1261 88.8281 69.1034 89.527 68.3341 88.8307C67.9501 88.4851 67.383 89.0509 67.767 89.3977C69.3978 90.8723 71.5482 88.8358 72.887 87.9257L78.9568 83.8131C80.3776 82.8505 82.1926 81.5667 81.879 79.5891C81.5885 77.696 79.2486 76.5977 77.568 76.3481C77.0637 76.2726 76.8448 77.0457 77.3555 77.1161L77.3542 77.1213Z" fill="#112870"/>
<path d="M82.0303 82.327C82.3196 82.4361 82.5844 82.6013 82.8096 82.8131C83.0349 83.0249 83.216 83.2791 83.3425 83.5612C83.4691 83.8432 83.5387 84.1475 83.5472 84.4566C83.5557 84.7656 83.503 85.0733 83.3922 85.3619C82.9327 86.5779 81.8012 87.5725 80.8898 88.4595C79.9247 89.4008 78.8985 90.2774 77.8178 91.0835C77.2785 91.4854 76.7273 91.8694 76.1641 92.2355C75.5241 92.6515 74.8495 93.1315 74.0725 93.2275C73.5682 93.2928 73.5605 94.0966 74.0725 94.0301C75.6841 93.8214 77.1445 92.5926 78.4028 91.6403C79.7716 90.6073 81.0557 89.4666 82.2428 88.2291C83.2156 87.2141 84.3433 86.0198 84.3612 84.5171C84.3778 83.1731 83.4652 82.007 82.2389 81.5501C81.7551 81.3696 81.5452 82.1453 82.0265 82.3181L82.0303 82.327Z" fill="#112870"/>
<path d="M83.9554 87.3434C86.0149 88.4198 87.3474 91.1104 85.3532 92.9587C84.5045 93.7446 83.414 94.3232 82.4476 94.953L79.0837 97.152C78.6537 97.4323 79.0543 98.1274 79.4882 97.8445L83.5842 95.1667C84.6543 94.4678 85.9292 93.8048 86.6229 92.6835C88.0309 90.4051 86.4681 87.7555 84.3548 86.6509C83.8978 86.4128 83.4921 87.104 83.9503 87.3446L83.9554 87.3434Z" fill="#112870"/>
<path d="M71.424 75.2781C71.3242 76.023 71.552 76.7693 72.1587 77.2493C72.6976 77.6794 73.4989 77.7395 73.9277 77.1354C74.2272 76.7142 73.5322 76.3123 73.2352 76.7309C73.0662 76.969 72.6093 76.6029 72.5018 76.4749C72.3858 76.3408 72.2989 76.184 72.2467 76.0146C72.1945 75.8451 72.178 75.6667 72.1984 75.4906C72.2662 74.9862 71.4931 74.7674 71.4304 75.2781H71.424Z" fill="white"/>
<path d="M76.3506 79.4675C76.2634 79.861 76.2934 80.2713 76.4367 80.6479C76.58 81.0245 76.8305 81.351 77.1572 81.5869C77.4839 81.8228 77.8725 81.9578 78.2751 81.9754C78.6777 81.993 79.0766 81.8923 79.4226 81.6858C79.8706 81.4298 79.4675 80.736 79.0182 80.9933C78.0723 81.5347 76.9177 80.7795 77.1302 79.6813C77.2275 79.177 76.4543 78.9607 76.3622 79.4675H76.3506Z" fill="white"/>
<path d="M79.6878 85.3594C79.8291 85.7699 80.1146 86.1152 80.4913 86.3311C80.868 86.547 81.3102 86.6188 81.7358 86.5331C82.2414 86.4346 82.0277 85.6602 81.5221 85.7651C81.3014 85.8018 81.0748 85.7605 80.8812 85.6484C80.6876 85.5363 80.539 85.3604 80.4609 85.1507C80.292 84.6669 79.5176 84.8743 79.6866 85.3645L79.6878 85.3594Z" fill="white"/>
<path d="M83.2219 89.9328C83.2245 90.2142 83.3019 90.4898 83.4462 90.7314C83.5905 90.9729 83.7966 91.1717 84.0432 91.3072C84.2898 91.4428 84.568 91.5102 84.8493 91.5026C85.1306 91.495 85.4048 91.4127 85.6437 91.264C86.084 90.9952 85.6808 90.3015 85.2392 90.5715C84.7003 90.9005 84.0437 90.5792 84.0232 89.9315C84.0079 89.4195 83.2053 89.4195 83.2219 89.9315V89.9328Z" fill="white"/>
<path d="M57.1211 46.6291L62.3831 53.1942C62.6563 53.5271 62.8335 53.9281 62.8957 54.3541C62.958 54.7801 62.9029 55.2151 62.7364 55.6121L61.3348 58.8121C61.1975 59.1261 60.986 59.402 60.7184 59.616C60.4508 59.8301 60.1352 59.9759 59.7988 60.0409L56.3761 60.7129C55.9523 60.7892 55.5157 60.7484 55.1134 60.5951C54.711 60.4417 54.3581 60.1815 54.0926 59.8425L48.8305 53.2774C48.0625 52.32 46.6046 52.5094 46.2052 53.6128L44.7691 57.6C44.644 57.962 44.6136 58.35 44.6808 58.7271C44.748 59.1041 44.9106 59.4577 45.1531 59.7542L52.906 69.4259C53.1427 69.7269 53.4524 69.9624 53.8057 70.11C54.159 70.2576 54.5441 70.3125 54.9246 70.2694L66.7121 68.7654C67.08 68.7208 67.4282 68.5747 67.7178 68.3435C68.0074 68.1122 68.2269 67.8049 68.3518 67.456L72.3851 56.279C72.5097 55.917 72.5399 55.529 72.4727 55.1521C72.4055 54.7751 72.2432 54.4215 72.0011 54.1248L64.243 44.4467C64.0062 44.1458 63.6965 43.9104 63.3432 43.7628C62.99 43.6152 62.6049 43.5602 62.2244 43.6032L58.0196 44.1395C56.8523 44.288 56.3531 45.6717 57.1211 46.6291Z" fill="#4081F4"/>
<path d="M57.4723 44.7488L60.4547 44.2483C61.3596 44.0973 62.5923 43.6826 63.4435 44.192C64.2179 44.6554 64.7926 45.632 65.3558 46.313L67.3833 48.768C68.7491 50.4205 70.2211 52.0282 71.4934 53.76C72.1411 54.6394 71.9427 55.657 71.7494 56.6579C71.571 57.5467 71.345 58.4252 71.0723 59.2896C70.4454 61.3042 69.5654 63.231 68.4534 65.024C68.1795 65.463 68.8732 65.8662 69.1459 65.4285C70.2147 63.6988 71.074 61.8481 71.7059 59.9155C72.0409 58.916 72.3128 57.8964 72.52 56.8627C72.6953 55.9757 72.904 55.0029 72.6044 54.1184C72.2857 53.1712 71.4102 52.3802 70.7881 51.6275L68.4393 48.7859L66.1763 46.039C65.5196 45.2454 64.8963 44.247 64.054 43.6339C63.2118 43.0208 62.1865 43.1526 61.206 43.3152L57.27 43.9757C56.758 44.0602 56.9769 44.8333 57.4825 44.7437L57.4723 44.7488Z" fill="#112870"/>
<path d="M70.44 61.7779L75.432 67.0003C75.7904 67.3741 76.3561 66.8058 76.0003 66.432L71.0083 61.2096C70.6512 60.8358 70.0841 61.4042 70.4413 61.7779H70.44Z" fill="#112870"/>
<path d="M46.8174 53.504C48.3687 52.608 49.6334 54.6944 50.4142 55.7043C51.3332 56.899 52.2996 58.051 53.3134 59.1603C53.7498 59.6378 54.1914 60.2406 54.7457 60.5888C55.3383 60.96 56.0922 60.8627 56.7566 60.823C58.3381 60.7256 59.9066 60.4757 61.4401 60.0768C61.9393 59.9488 61.7281 59.1731 61.2263 59.3088C59.6074 59.7334 57.9475 59.9823 56.2753 60.0512C55.7633 60.0704 55.3204 60.073 54.9262 59.703C54.6458 59.4394 54.3898 59.145 54.1287 58.8621C53.5613 58.2502 53.0092 57.6252 52.4724 56.9869C51.5098 55.8438 50.697 54.4934 49.6206 53.4579C48.763 52.631 47.5175 52.1779 46.4206 52.8179C45.9726 53.0739 46.377 53.769 46.825 53.5104L46.8174 53.504Z" fill="#112870"/>
<path d="M63.6033 69.7203L64.8475 69.0534C65.3032 68.809 64.8987 68.1165 64.443 68.361L63.1976 69.0278C62.7432 69.271 63.1477 69.9635 63.6033 69.7203Z" fill="#112870"/>
<path d="M103.016 69.8125C103.016 69.8125 124.362 77.1571 124.776 81.7728C125.189 86.3885 121.303 113.368 119.45 115.584C117.596 117.8 102.698 104.607 96.7936 102.039C90.889 99.4714 103.51 75.7593 103.016 69.8125Z" fill="#FC92C3"/>
<path d="M105.496 92.4544C107.131 87.6751 107.736 82.6041 107.272 77.5744C107.224 77.0624 106.422 77.0624 106.469 77.5744C106.931 82.5317 106.335 87.5305 104.722 92.2406C104.554 92.7309 105.33 92.9408 105.496 92.4544Z" fill="#112870"/>
<path d="M103.831 97.408C104.343 97.408 104.343 96.6054 103.831 96.6054C103.319 96.6054 103.319 97.408 103.831 97.408Z" fill="#112870"/>
<path d="M36.63 51.0464C36.5574 50.6735 36.4721 50.3078 36.374 49.9494C36.2599 49.541 36.2469 49.111 36.3361 48.6964C36.4253 48.2819 36.614 47.8953 36.886 47.5699L39.5842 44.3264C39.9812 43.8491 40.1954 43.246 40.1884 42.6252C40.1813 42.0044 39.9536 41.4064 39.5458 40.9382L38.0866 39.2627C37.6786 38.7944 37.1172 38.4866 36.503 38.3944C35.8888 38.3023 35.2618 38.4317 34.7343 38.7597L31.1503 40.9881C30.7897 41.213 30.3797 41.3465 29.9559 41.3768C29.532 41.4071 29.1072 41.3335 28.7183 41.1622C28.0292 40.86 27.3164 40.6151 26.5871 40.4301C26.1768 40.3256 25.7982 40.1227 25.484 39.839C25.1697 39.5553 24.9293 39.1994 24.7836 38.8019L23.3244 34.8454C23.1099 34.2623 22.6948 33.7747 22.1535 33.4698C21.6122 33.1649 20.98 33.0626 20.3701 33.1814L18.1941 33.6077C17.5847 33.7271 17.0376 34.0595 16.6509 34.5455C16.2642 35.0314 16.063 35.6391 16.0834 36.2598L16.2216 40.4736C16.236 40.8967 16.1471 41.317 15.9627 41.6981C15.7782 42.0793 15.5038 42.4098 15.1631 42.6611C14.5572 43.1072 13.989 43.6026 13.4645 44.1421C13.1678 44.4488 12.8004 44.6782 12.3945 44.8101C11.9886 44.942 11.5566 44.9723 11.1362 44.8985L6.97749 44.183C6.36544 44.0779 5.73596 44.1941 5.20172 44.5107C4.66747 44.8273 4.26334 45.3237 4.06165 45.911L3.34229 48.0128C3.14066 48.6001 3.15475 49.2401 3.38202 49.818C3.60929 50.3959 4.0349 50.874 4.58261 51.1667L8.30357 53.1545C8.67745 53.3541 8.99708 53.6417 9.23483 53.9925C9.47257 54.3433 9.62127 54.7468 9.66805 55.168C9.71029 55.5379 9.76661 55.9104 9.83957 56.2829C9.91253 56.6553 9.99957 57.0214 10.0956 57.3798C10.21 57.788 10.2232 58.2179 10.1339 58.6323C10.0447 59.0467 9.85581 59.4331 9.58357 59.7581L6.89557 63.0016C6.49843 63.4791 6.28421 64.0823 6.29125 64.7034C6.29828 65.3244 6.52612 65.9226 6.93397 66.391L8.39445 68.0665C8.80226 68.5348 9.36351 68.8424 9.97759 68.9344C10.5917 69.0263 11.2184 68.8965 11.7455 68.5683L15.3295 66.3398C15.6903 66.1156 16.1002 65.9825 16.524 65.9522C16.9477 65.9218 17.3724 65.9951 17.7615 66.1657C18.4507 66.4692 19.164 66.7145 19.894 66.8992C20.3039 67.0039 20.6823 67.2066 20.9965 67.49C21.3107 67.7735 21.5513 68.129 21.6975 68.5261L23.1554 72.4825C23.3697 73.0658 23.7847 73.5536 24.3261 73.8586C24.8675 74.1635 25.4998 74.2656 26.1096 74.1465L28.2856 73.7203C28.8951 73.6014 29.4423 73.2693 29.8291 72.7835C30.2159 72.2977 30.417 71.69 30.3964 71.0694L30.2581 66.8544C30.2437 66.4314 30.3325 66.0113 30.517 65.6303C30.7014 65.2494 30.9759 64.9191 31.3167 64.6681C31.9226 64.2216 32.4908 63.7258 33.0152 63.1859C33.3105 62.8816 33.6753 62.6539 34.0783 62.5223C34.4813 62.3907 34.9103 62.3593 35.3282 62.4307L39.4869 63.1449C40.0989 63.2507 40.7285 63.1349 41.2628 62.8185C41.7971 62.5021 42.2013 62.0056 42.4028 61.4182L43.1234 59.3165C43.3253 58.7291 43.3114 58.0891 43.0841 57.5111C42.8568 56.9331 42.431 56.455 41.8831 56.1625L38.1621 54.1734C37.7886 53.9738 37.4693 53.6863 37.2316 53.3357C36.9939 52.9852 36.845 52.5821 36.7976 52.1613C36.7593 51.7901 36.7029 51.4189 36.63 51.0464Z" fill="#F9CE46"/>
<path d="M23.2343 60.1664C26.8255 60.1664 29.7367 57.2552 29.7367 53.664C29.7367 50.0728 26.8255 47.1616 23.2343 47.1616C19.6432 47.1616 16.7319 50.0728 16.7319 53.664C16.7319 57.2552 19.6432 60.1664 23.2343 60.1664Z" fill="#FF7348"/>
<path d="M22.0941 47.6698C26.1171 46.9402 29.8342 50.3872 29.2851 54.4781C29.155 55.4054 28.8152 56.2909 28.2915 57.0671C27.7679 57.8434 27.0741 58.4901 26.263 58.9581C24.233 60.1203 21.7498 59.9706 19.8067 58.7021C19.3728 58.4205 18.9696 59.1143 19.4023 59.3946C22.6419 61.5015 27.0707 60.5786 29.1136 57.2736C30.9568 54.2912 30.1965 50.2784 27.4112 48.16C26.6296 47.5727 25.7337 47.1554 24.7812 46.935C23.8286 46.7146 22.8405 46.6958 21.8803 46.88C21.3683 46.9722 21.5885 47.7453 22.0941 47.6544V47.6698Z" fill="#112870"/>
<path d="M67.1243 44.4557C70.6763 45.7498 74.387 46.4781 78.1144 47.0579C81.7982 47.6301 85.5473 47.9923 89.1838 48.832C90.8478 49.216 92.6065 49.8087 93.8174 51.0835C94.8619 52.1831 95.5339 53.8663 94.9989 55.36C94.4971 56.7603 93.3208 57.9853 92.0024 58.6394C90.5009 59.3856 88.6744 59.3639 87.036 59.4074C82.9093 59.5277 78.7915 59.1258 74.6699 59.0311C74.1579 59.0195 74.1579 59.8221 74.6699 59.8336C78.6789 59.9258 82.6814 60.3059 86.6955 60.2176C88.4043 60.1805 90.2987 60.2061 91.9064 59.5507C93.2733 58.9839 94.4251 57.9979 95.196 56.7347C97.0289 53.7728 95.2126 50.4704 92.3301 49.0547C90.6661 48.2343 88.8062 47.9027 86.9886 47.5955C84.9662 47.2461 82.9336 46.9619 80.9035 46.6688C76.3147 46.0045 71.7105 45.2762 67.3355 43.6839C66.8504 43.5072 66.6405 44.2816 67.123 44.4519L67.1243 44.4557Z" fill="#112870"/>
<path d="M47.3884 49.8317C48.5404 46.7597 51.5894 44.5901 54.8674 44.4826C55.3794 44.4646 55.3858 43.6634 54.8674 43.68C53.0617 43.7538 51.3172 44.3558 49.8503 45.4116C48.3835 46.4673 47.2586 47.9303 46.6153 49.6192C46.4335 50.103 47.2092 50.3117 47.3833 49.8317H47.3884Z" fill="#112870"/>
<path d="M43.0247 32.6733C49.0352 32.882 55.0527 32.7513 61.0484 32.2816C64.1908 32.0358 67.332 31.6966 70.4833 31.7338C73.7742 31.7722 77.0574 32.2227 80.3483 32.1178C82.1876 32.0576 84.0308 31.8246 85.8625 31.9898C86.8161 32.0781 87.794 32.2893 88.562 32.8576C89.33 33.4259 89.842 34.4154 89.6014 35.3357C89.4004 36.1037 88.7208 36.6861 87.9707 36.9766C87.2206 37.2672 86.4014 37.3146 85.5975 37.3517C80.6542 37.5808 75.7031 37.5629 70.7495 37.5206C65.4004 37.4746 60.0513 37.3926 54.7022 37.3222L43.1118 37.1584C42.8955 37.1584 42.6587 37.1456 42.4935 37.0061C42.3635 36.8756 42.2787 36.707 42.2516 36.5248C41.9952 35.4431 42.0847 34.3081 42.5076 33.28" fill="#E3E5E5"/>
<path d="M82.0596 32.9267C82.0374 34.1214 82.0442 35.3161 82.0801 36.5107C82.0954 37.0227 82.898 37.0227 82.8826 36.5107C82.8468 35.3161 82.84 34.1214 82.8622 32.9267C82.8724 32.4147 82.0698 32.4147 82.0596 32.9267Z" fill="white"/>
<path d="M86.1901 33.321C85.9053 33.2388 85.6004 33.2626 85.3317 33.3877C85.063 33.5129 84.8487 33.7311 84.7283 34.0019C84.4582 34.6099 84.7168 35.3434 85.225 35.7414C86.3987 36.6579 87.9309 34.999 87.1194 33.8368C86.9469 33.6054 86.6998 33.4408 86.4199 33.3708C86.1399 33.3008 85.8444 33.3298 85.5834 33.4528C85.3383 33.5813 85.1461 33.7917 85.0401 34.0473C84.9342 34.303 84.9212 34.5876 85.0035 34.8518C85.1546 35.3638 85.7625 35.9053 86.3168 35.5789C86.871 35.2525 86.9414 34.3488 86.4691 33.9418C85.9149 33.463 84.9331 34.0608 85.3517 34.7571C85.4392 34.889 85.5691 34.9871 85.7199 35.0352C85.8706 35.0834 86.0333 35.0788 86.1811 35.0221C86.537 34.8941 86.6662 34.5574 86.711 34.2118C86.7776 33.6998 85.975 33.7062 85.9098 34.2118C85.8854 34.391 86.0019 34.5536 85.9661 34.7379C85.9597 34.7913 85.9404 34.8422 85.9098 34.8864C85.9494 34.8518 85.9366 34.8262 85.8714 34.807C85.8178 34.7477 85.7806 34.6753 85.7636 34.5972C85.7465 34.5191 85.7501 34.4379 85.7741 34.3616C85.9123 33.952 86.5062 34.1389 86.5306 34.5242C86.5651 35.0643 85.9405 35.447 85.5706 34.9645C85.3082 34.6214 85.4221 33.92 85.9699 34.089C86.4653 34.2413 86.6765 33.4669 86.1837 33.3146L86.1901 33.321Z" fill="#75DDF9"/>
<path d="M97.586 40.832C102.131 40.7196 106.678 41.0135 111.171 41.7101L110.876 41.3261L110.799 45.0483C110.788 45.5808 110.917 46.3795 110.742 46.8736C110.56 47.3856 109.896 47.2115 109.495 47.1168C108.438 46.8485 107.353 46.7088 106.263 46.7008C105.144 46.7008 104.028 46.8058 102.91 46.8006C101.792 46.7986 100.679 46.6632 99.5944 46.3974C99.0384 46.2615 98.4916 46.0905 97.9572 45.8854C97.4094 45.6742 97.4452 45.3491 97.4695 44.8474C97.5502 43.4214 97.6692 41.9379 98.0059 40.5466C98.1339 40.0448 97.3543 39.831 97.2379 40.3341C96.9204 41.641 96.8078 43.0221 96.7054 44.361C96.6644 44.896 96.5044 45.6806 96.8436 46.1427C97.0331 46.3987 97.3556 46.5062 97.6411 46.6176C98.1745 46.8265 98.7204 47.0022 99.2756 47.1437C101.361 47.6787 103.423 47.584 105.548 47.5187C106.7 47.4829 107.852 47.5187 108.973 47.8093C109.582 47.9667 110.304 48.169 110.903 47.8656C111.799 47.4112 111.58 46.1235 111.597 45.2979L111.68 41.3299C111.679 41.2426 111.65 41.1579 111.597 41.0887C111.544 41.0194 111.47 40.9693 111.386 40.9459C106.823 40.2325 102.205 39.9288 97.5873 40.0384C97.0753 40.0512 97.0753 40.8538 97.5873 40.841L97.586 40.832Z" fill="#E3E5E5"/>
<path d="M98.8518 51.7018L104.591 51.6941H107.337C108.29 51.6941 109.281 51.6109 110.202 51.9027C110.696 52.0602 110.907 51.2858 110.415 51.1347C109.577 50.8685 108.706 50.8941 107.836 50.8954H104.841L98.8518 50.9043C98.3398 50.9043 98.3398 51.7069 98.8518 51.7056V51.7018Z" fill="#E3E5E5"/>
<path d="M99.114 55.3293C102.478 55.8256 105.876 56.0516 109.276 56.0051C109.788 55.9974 109.788 55.1949 109.276 55.2026C105.948 55.2525 102.621 55.036 99.3278 54.5549C98.8235 54.4806 98.6046 55.2538 99.1153 55.3293H99.114Z" fill="#E3E5E5"/>
<path d="M102.208 59.0835C104.456 59.7368 106.815 59.9189 109.137 59.6186C109.649 59.5533 109.649 58.7507 109.137 58.8173C106.887 59.1118 104.6 58.9375 102.421 58.3053C101.924 58.1619 101.711 58.9363 102.208 59.0733V59.0835Z" fill="#E3E5E5"/>
<path d="M103.808 62.743C105.503 62.8158 107.202 62.7816 108.893 62.6406C109.405 62.5984 109.405 61.7958 108.893 61.8381C107.202 61.9791 105.503 62.0133 103.808 61.9405C103.296 61.9187 103.296 62.7213 103.808 62.743Z" fill="#E3E5E5"/>
<path d="M21.5602 81.271C20.366 81.2979 19.3586 82.473 19.4175 83.6659C19.4764 84.8589 20.5055 85.8982 21.6869 86.071C22.8684 86.2438 24.0997 85.6102 24.7397 84.6016C24.8996 84.3556 25.0176 84.0848 25.0892 83.8003C25.1656 83.47 25.1647 83.1265 25.0866 82.7965C25.0084 82.4666 24.8551 82.1592 24.6386 81.8982C24.418 81.6408 24.1403 81.4384 23.8276 81.3073C23.5149 81.1761 23.1759 81.1199 22.8377 81.143" fill="#E3E5E5"/>
<path d="M108.915 66.4806C108.626 66.2336 108.164 66.3104 107.868 66.5485C107.572 66.7866 107.405 67.1424 107.246 67.4867C107.049 67.9155 106.849 68.4109 107.044 68.8397C107.169 69.0649 107.344 69.2581 107.556 69.4042C107.845 69.6384 108.157 69.8816 108.527 69.9251C108.784 69.9477 109.041 69.8942 109.267 69.7715C109.585 69.6096 109.849 69.3595 110.028 69.0514C110.208 68.7432 110.294 68.3899 110.278 68.0337C110.262 67.6775 110.144 67.3336 109.937 67.043C109.73 66.7523 109.445 66.5273 109.114 66.3949" fill="#E3E5E5"/>
<path d="M4.92681 69.8458C6.08467 70.6794 7.43917 71.1981 8.85769 71.351C9.36969 71.4112 9.36969 70.6086 8.85769 70.5498C7.58205 70.3954 6.36784 69.9144 5.33257 69.1533C4.91401 68.8499 4.51209 69.545 4.92681 69.8458Z" fill="#112870"/>
<path d="M31.9731 83.6007C30.9401 85.4682 31.3984 87.9526 33.0918 89.2698C33.495 89.5846 34.0659 89.0202 33.6601 88.7027C32.2521 87.6006 31.7913 85.5872 32.6656 84.0051C32.9152 83.5533 32.2227 83.1488 31.9731 83.6007Z" fill="#112870"/>
<path d="M58.1876 80.5658L58.436 80.0717C58.4829 79.9803 58.4931 79.8744 58.4644 79.7758C58.4357 79.6771 58.3703 79.5932 58.2816 79.5413C58.193 79.4893 58.0878 79.4733 57.9877 79.4965C57.8877 79.5197 57.8002 79.5803 57.7435 79.6659L57.4952 80.1613C57.4436 80.2538 57.4299 80.3626 57.4569 80.465C57.4838 80.5674 57.5494 80.6553 57.6398 80.7104C57.7319 80.7625 57.8408 80.7766 57.9431 80.7496C58.0455 80.7225 58.1332 80.6566 58.1876 80.5658Z" fill="#112870"/>
<path d="M30.5013 32.7168L31.2129 29.9878C31.3409 29.4874 30.5729 29.2749 30.4449 29.7741L29.7345 32.5043C29.6065 33.0035 30.3745 33.2173 30.5025 32.7168H30.5013Z" fill="#112870"/>
<path d="M34.6137 33.8803L36.823 31.6365C37.1865 31.2691 36.6195 30.7008 36.2559 31.0694L34.0479 33.3133C33.6857 33.6806 34.2527 34.249 34.615 33.8803H34.6137Z" fill="#112870"/>
<path d="M38.2966 37.2186L40.5238 36.9702C41.0358 36.9139 41.0358 36.1114 40.5238 36.169L38.2966 36.4173C37.7846 36.4736 37.7846 37.2762 38.2966 37.2186Z" fill="#112870"/>
</svg>
