<svg width="128" height="128" viewBox="0 0 128 128" fill="none" xmlns="http://www.w3.org/2000/svg">
<path d="M79.667 107.171C79.667 107.171 81.6638 120.813 84.9534 120.813H95.5249C97.8097 120.813 100.81 107.171 100.81 107.171H79.667Z" fill="#FF7348"/>
<path d="M36.6309 107.171C36.6309 107.171 38.6238 120.813 41.9173 120.813H52.4888C54.7749 120.813 57.7752 107.171 57.7752 107.171H36.6309Z" fill="#FF7348"/>
<path d="M11.9731 98.8262C11.9731 98.8262 13.9648 112.468 17.2583 112.468H27.8311C30.1159 112.468 33.1162 98.8262 33.1162 98.8262H11.9731Z" fill="#FF7348"/>
<path d="M44.0858 110.592C39.5392 110.264 16.8026 100.372 13.0048 100.138C9.20706 99.904 11.7389 47.0182 13.0048 42.569C14.2707 38.1197 71.3229 33.664 73.152 38.9606C74.9811 44.2573 48.64 110.921 44.0858 110.592Z" fill="#FF7348"/>
<path d="M101.608 110.546C97.0601 110.218 47.8364 110.781 44.0399 110.546C40.2434 110.31 42.774 57.4259 44.0399 52.9779C45.3058 48.5299 99.7801 47.68 101.608 52.9779C103.436 58.2758 106.156 110.875 101.608 110.546Z" fill="#F9CE46"/>
<path d="M96.539 102.444C94.619 102.316 92.6567 102.511 90.7431 102.593C87.1284 102.747 83.5137 102.92 79.8977 103.071C72.0641 103.398 64.1908 103.782 56.3559 103.462C55.0401 103.409 53.7191 103.334 52.4148 103.162C52.0308 103.109 51.5431 103.034 51.1233 102.926C50.9556 102.885 50.7905 102.836 50.6267 102.784C50.516 102.761 50.4106 102.717 50.3156 102.656C50.2708 102.633 50.2324 102.6 50.1876 102.577C50.1684 102.568 50.2632 102.664 50.1736 102.554C50.1518 102.527 50.2516 102.666 50.1736 102.543C50.1358 102.482 50.102 102.417 50.0724 102.351C50.1134 102.436 50.0046 102.164 49.9675 102.044C49.9099 101.853 49.8638 101.66 49.8216 101.466C49.586 100.384 49.4913 99.3037 49.403 98.1939C48.8039 90.6419 49.0382 82.9811 49.2891 75.4099C49.4068 71.8464 49.5604 68.2829 49.8177 64.727C49.9035 63.5482 49.9956 62.368 50.1377 61.1942C50.1787 60.8576 50.2055 60.6182 50.2823 60.2125C50.3054 60.096 50.3335 59.9808 50.3591 59.8643C50.3707 59.817 50.4078 59.6378 50.3489 59.8554C50.3784 59.7466 50.4488 59.7786 50.3489 59.8362C50.3886 59.8144 50.4206 59.7542 50.4577 59.7248C50.5704 59.6378 50.363 59.785 50.4846 59.7043C50.6048 59.6254 50.7301 59.5544 50.8596 59.4918C50.9754 59.4327 51.0962 59.3839 51.2206 59.3459C51.4215 59.2742 51.6251 59.2115 51.8299 59.1526C52.9055 58.8642 53.9988 58.6462 55.1028 58.4998C58.354 58.0211 61.6488 57.8099 64.9281 57.6525C72.5083 57.2915 80.1729 57.2582 87.7364 57.9366C90.148 58.153 92.7284 58.3539 95.0107 59.2013C95.2983 59.3013 95.5713 59.4395 95.8222 59.6122C95.9502 59.7018 95.7556 59.5597 95.8683 59.6506C95.9161 59.6877 95.9591 59.7307 95.9963 59.7786C96.0295 59.8234 95.9246 59.6723 96.004 59.7978C96.0833 59.9232 95.9732 59.6838 96.0308 59.8592C96.2689 60.5888 96.3739 61.367 96.4852 62.1235C96.9128 65.0304 97.1342 67.9808 97.3415 70.912C97.6214 74.8826 97.8143 78.8582 97.9201 82.839C98.0225 86.6547 98.0584 90.4781 97.8984 94.2925C97.796 96.7066 97.7806 99.3677 96.9844 101.679C96.9038 101.913 96.7968 102.138 96.6657 102.348C96.658 102.359 96.5377 102.49 96.5659 102.442C96.5403 102.481 96.5992 102.442 96.5441 102.442C95.8209 102.41 95.8222 103.535 96.5441 103.567C98.2004 103.64 98.4577 100.506 98.6049 99.4342C99.0593 96.1408 99.1169 92.7885 99.1272 89.4682C99.1638 81.6167 98.8036 73.7684 98.0481 65.9533C97.9201 64.5978 97.7691 63.2435 97.5732 61.8944C97.4606 61.1264 97.3659 60.3034 97.1086 59.561C96.5748 58.025 94.1044 57.7152 92.7566 57.463C89.6142 56.8755 86.3937 56.6618 83.2052 56.5056C79.2014 56.3098 75.1886 56.2701 71.1809 56.3328C67.3409 56.393 63.4881 56.544 59.6545 56.8691C56.9665 57.097 54.1851 57.3222 51.5764 58.0531C50.9108 58.2387 50.1172 58.4627 49.6116 58.967C49.1815 59.3958 49.1534 60.0858 49.0753 60.6554C48.7003 63.3894 48.5735 66.167 48.4353 68.9216C48.0129 77.0304 47.7953 85.1776 48.0334 93.2979C48.1128 96.0806 48.1447 98.9683 48.7233 101.704C48.859 102.344 49.0292 103.126 49.5988 103.525C50.2004 103.948 51.026 104.076 51.7339 104.189C54.6689 104.66 57.6936 104.662 60.6568 104.677C64.7924 104.699 68.9268 104.593 73.06 104.456C80.2011 104.219 87.3371 103.776 94.4808 103.578C95.1643 103.56 95.8567 103.525 96.5403 103.569C97.2622 103.615 97.2596 102.49 96.539 102.444Z" fill="#112870"/>
<path d="M12.9575 42.624L44.0858 52.937H100.717C100.717 52.937 102.03 46.0928 70.4321 36.5299C58.6407 32.9536 14.0801 35.68 12.9575 42.624Z" fill="#75DDF9"/>
<path d="M43.2861 53.5603C41.3303 68.713 40.52 84.0435 41.0038 99.3178C41.1318 103.223 41.4416 107.192 42.9571 110.838C43.1619 111.332 43.9811 111.116 43.7699 110.614C42.4042 107.325 42.0253 103.78 41.8819 100.252C41.7296 96.521 41.7066 92.7808 41.7309 89.047C41.7787 81.4746 42.12 73.9119 42.7549 66.359C43.1167 62.0838 43.5737 57.8172 44.1258 53.559C44.1949 53.0227 43.3501 53.0278 43.281 53.559L43.2861 53.5603Z" fill="#112870"/>
<path d="M13.229 42.4768L43.3922 53.504C43.9042 53.6909 44.1231 52.8755 43.6162 52.6899L13.453 41.6627C12.941 41.4758 12.7221 42.2912 13.229 42.4768Z" fill="#112870"/>
<path d="M43.7991 53.5283L88.3111 53.1443L100.766 53.0381C101.308 53.0381 101.31 52.1894 100.766 52.1945L56.2663 52.5785L43.7991 52.6848C43.2564 52.6848 43.2551 53.5334 43.7991 53.5283Z" fill="#112870"/>
<path d="M13.3212 94.473C13.3634 95.5023 13.7314 96.4916 14.372 97.2984C15.0127 98.1051 15.893 98.6876 16.886 98.9619C17.4108 99.1027 17.6348 98.2899 17.11 98.1478C16.2939 97.925 15.5693 97.4493 15.0404 96.7891C14.5115 96.1289 14.2054 95.318 14.166 94.473C14.1442 93.9315 13.3007 93.929 13.3212 94.473Z" fill="#112870"/>
<path d="M15.7518 101.592C18.1147 102.952 20.7285 103.725 23.3371 104.458C26.0251 105.213 28.6158 106.071 31.1618 107.214C33.5938 108.303 35.981 109.489 38.4962 110.365C41.0728 111.261 43.7134 111.645 46.4322 111.767C52.3291 112.037 58.2402 111.375 64.1346 111.255C70.3366 111.124 76.5365 110.956 82.7342 110.751C89.7819 110.519 96.8279 110.239 103.872 109.912C104.412 109.888 104.416 109.043 103.872 109.069C91.4818 109.642 79.0854 110.069 66.683 110.349C63.7595 110.415 60.8398 110.477 57.9189 110.628C55.0414 110.783 52.1589 110.966 49.2789 110.976C46.4194 110.986 43.4907 110.888 40.7118 110.161C38.1032 109.478 35.6469 108.342 33.2046 107.217C30.4757 105.962 27.7493 104.832 24.8578 104.004C21.8882 103.168 18.8712 102.414 16.1781 100.864C15.7058 100.593 15.2821 101.322 15.7518 101.594V101.592Z" fill="#112870"/>
<path d="M45.3032 65.0483C47.1951 67.3203 50.8354 66.8697 52.1308 64.2189C52.4482 63.5712 51.478 63.0003 51.1592 63.6505C50.1621 65.6985 47.5484 65.9942 46.0981 64.2534C45.6348 63.6966 44.8424 64.4953 45.3032 65.0483Z" fill="#112870"/>
<path d="M45.2686 97.7229C47.4292 99.1181 50.3668 98.8185 52.233 97.0649C52.763 96.5683 51.9655 95.7747 51.4382 96.2701C49.9265 97.6896 47.5687 97.8701 45.8356 96.7513C45.2263 96.3571 44.6618 97.3312 45.2686 97.7229Z" fill="#112870"/>
<path d="M37.4071 55.6646C39.2746 56.2202 39.1466 58.601 39.0417 60.137C38.9918 60.8602 40.1169 60.8563 40.1668 60.137C40.3114 58.0224 40.1374 55.3024 37.7054 54.5805C37.0103 54.3744 36.7134 55.4598 37.4071 55.6646Z" fill="#112870"/>
<path d="M76.3111 96.6221C82.2903 96.6221 87.1373 90.1595 87.1373 82.1875C87.1373 74.2155 82.2903 67.753 76.3111 67.753C70.3319 67.753 65.4849 74.2155 65.4849 82.1875C65.4849 90.1595 70.3319 96.6221 76.3111 96.6221Z" fill="#4081F4"/>
<path d="M89.9343 82.7507C89.9343 88.7808 86.2684 93.6704 81.7423 93.6704C77.2162 93.6704 73.5503 88.7808 73.5503 82.7507C73.5503 76.7206 78.1148 71.8707 81.7717 71.8707C86.3004 71.8707 89.9343 76.7206 89.9343 82.7507Z" fill="#75DDF9"/>
<path d="M68.956 72.7693L69.7036 73.4272C69.925 73.6218 70.2847 73.6615 70.4997 73.4272C70.6956 73.2147 70.7353 72.8397 70.4997 72.6323L69.7522 71.9744C69.5308 71.7798 69.1711 71.7402 68.956 71.9744C68.7602 72.1869 68.7205 72.5619 68.956 72.7693Z" fill="#112870"/>
<path d="M67.7669 77.7997H68.6079C68.684 77.8033 68.7601 77.7914 68.8315 77.7648C68.903 77.7382 68.9682 77.6973 69.0234 77.6447C69.0785 77.5921 69.1225 77.5289 69.1525 77.4588C69.1825 77.3888 69.1979 77.3133 69.1979 77.2371C69.1979 77.1609 69.1825 77.0855 69.1525 77.0154C69.1225 76.9453 69.0785 76.8821 69.0234 76.8295C68.9682 76.7769 68.903 76.7361 68.8315 76.7094C68.7601 76.6828 68.684 76.6709 68.6079 76.6746H67.7644C67.6198 76.6815 67.4835 76.7437 67.3836 76.8485C67.2837 76.9532 67.228 77.0924 67.228 77.2371C67.228 77.3818 67.2837 77.521 67.3836 77.6258C67.4835 77.7305 67.6198 77.7928 67.7644 77.7997H67.7669Z" fill="#112870"/>
<path d="M67.4228 85.6819C67.7389 85.7691 68.0743 85.7561 68.3828 85.6448C68.6567 85.5411 68.8756 85.2608 68.7757 84.9536C68.69 84.6861 68.3776 84.4416 68.0832 84.5606C68.0414 84.577 67.9986 84.5911 67.9552 84.6029C67.9267 84.6108 67.8976 84.6168 67.8682 84.6208C67.936 84.6131 67.9488 84.6106 67.9053 84.6131C67.8618 84.6157 67.8144 84.6131 67.7773 84.6131C67.7402 84.6131 67.7479 84.6131 67.8157 84.6131C67.7859 84.6081 67.7564 84.6013 67.7274 84.5926C67.5855 84.5591 67.436 84.5819 67.3106 84.6563C67.1851 84.7307 67.0934 84.8509 67.0548 84.9915C67.0162 85.1322 67.0336 85.2823 67.1034 85.4104C67.1732 85.5384 67.29 85.6344 67.4292 85.6781L67.4228 85.6819Z" fill="#112870"/>
<path d="M70.1071 91.5827L70.5756 91.3011C70.6424 91.2654 70.7014 91.2166 70.749 91.1576C70.7966 91.0985 70.8317 91.0305 70.8523 90.9575C70.873 90.8846 70.8787 90.8082 70.8691 90.733C70.8595 90.6578 70.8348 90.5853 70.7965 90.5199C70.7582 90.4544 70.7072 90.3974 70.6463 90.3522C70.5854 90.307 70.5161 90.2745 70.4424 90.2567C70.3687 90.239 70.2922 90.2363 70.2174 90.2488C70.1426 90.2613 70.0711 90.2888 70.0072 90.3296L69.5388 90.6112C69.4719 90.6469 69.4129 90.6957 69.3653 90.7548C69.3178 90.8138 69.2826 90.8819 69.262 90.9548C69.2413 91.0278 69.2357 91.1041 69.2452 91.1793C69.2548 91.2545 69.2795 91.327 69.3178 91.3925C69.3561 91.4579 69.4072 91.5149 69.468 91.5602C69.5289 91.6054 69.5982 91.6378 69.6719 91.6556C69.7456 91.6734 69.8222 91.6761 69.8969 91.6636C69.9717 91.651 70.0432 91.6235 70.1071 91.5827Z" fill="#112870"/>
<path d="M74.7266 95.7235L75.1951 95.3485C75.3006 95.2429 75.36 95.0997 75.3602 94.9504C75.3598 94.8013 75.3004 94.6583 75.1948 94.553C75.0892 94.4477 74.9461 94.3885 74.797 94.3885C74.6492 94.3959 74.5085 94.4542 74.3989 94.5536L73.9304 94.9274C73.8517 95.0061 73.7981 95.1065 73.7764 95.2157C73.7547 95.3249 73.7659 95.4381 73.8085 95.5409C73.8511 95.6438 73.9232 95.7317 74.0158 95.7936C74.1083 95.8555 74.2172 95.8886 74.3285 95.8887C74.4761 95.8804 74.6165 95.8221 74.7266 95.7235Z" fill="#112870"/>
<path d="M73.6933 92.224C75.1167 93.6781 76.901 94.7008 78.9413 94.9312C80.7807 95.1398 82.6533 94.656 84.2482 93.751C88.0229 91.6134 89.9967 87.552 90.1874 83.3203C90.3026 80.7923 89.7867 78.2157 88.5746 75.9846C87.3816 73.7894 85.4949 72.3366 83.0527 71.7875C80.9483 71.3139 78.6418 71.4394 76.517 71.7517C75.5659 71.8912 74.5855 72.151 73.829 72.7667C72.933 73.4899 72.3378 74.6867 71.8719 75.7107C69.5256 80.8883 69.637 87.8835 73.6984 92.2227C74.1938 92.7526 74.9887 91.9552 74.4933 91.4266C71.2216 87.9322 70.8095 82.3552 72.2047 77.9699C72.7794 76.1638 73.6613 73.6858 75.6607 73.0829C76.5323 72.8179 77.4527 72.7578 78.3487 72.6989C79.2447 72.64 80.1906 72.5709 81.1148 72.6336C83.324 72.7731 85.518 73.559 86.8748 75.3856C88.2316 77.2122 88.9228 79.5443 89.0508 81.8035C89.2684 85.6589 87.9883 89.5424 84.8779 91.9718C83.429 93.1046 81.6332 93.8509 79.7772 93.8483C77.7176 93.8483 75.9013 92.8678 74.4843 91.4163C73.9839 90.9094 73.1864 91.7056 73.6933 92.224Z" fill="#112870"/>
<path d="M72.3597 69.1776C72.3302 69.6055 72.3687 70.0353 72.4736 70.4512C72.6464 71.1539 73.7319 70.857 73.5591 70.153C73.4814 69.834 73.4563 69.5046 73.4848 69.1776C73.5078 68.8742 73.2096 68.6144 72.9229 68.6144C72.7744 68.6173 72.6329 68.6776 72.5279 68.7826C72.4229 68.8876 72.3626 69.0292 72.3597 69.1776Z" fill="#112870"/>
<path d="M77.7124 68.3699L77.5179 69.3056C77.4577 69.5923 77.6011 69.9264 77.9108 69.9968C78.1924 70.0621 78.538 69.9123 78.602 69.6039L78.7979 68.6694C78.858 68.3814 78.7134 68.0474 78.4049 67.977C78.1233 67.913 77.7777 68.0614 77.7124 68.3699Z" fill="#112870"/>
<path d="M80.9819 70.4V70.5869C80.9819 70.7363 81.0413 70.8795 81.1469 70.9851C81.2525 71.0908 81.3958 71.1501 81.5451 71.1501C81.6935 71.1471 81.8349 71.0868 81.9397 70.9818C82.0444 70.8768 82.1044 70.7352 82.1071 70.5869V70.4C82.1072 70.3261 82.0928 70.2529 82.0647 70.1846C82.0365 70.1163 81.9951 70.0542 81.9429 70.0018C81.8907 69.9495 81.8287 69.908 81.7605 69.8797C81.6922 69.8514 81.619 69.8368 81.5451 69.8368C81.3966 69.8394 81.2549 69.8996 81.1498 70.0047C81.0447 70.1097 80.9846 70.2515 80.9819 70.4Z" fill="#112870"/>
<path d="M78.2641 97.3875C78.9885 97.3875 78.9898 96.2624 78.2641 96.2624C77.5383 96.2624 77.5396 97.3875 78.2641 97.3875Z" fill="#112870"/>
<path d="M75.4355 75.168C73.5072 78.253 72.7641 81.933 73.344 85.5245C73.6192 87.2589 74.1798 89.1776 75.3216 90.5472C75.9347 91.2832 76.7296 91.881 77.4899 92.4672C78.2195 93.0291 79.0054 93.5655 79.8835 93.8752C81.3043 94.3655 83.2576 94.2285 84.5964 93.5565C85.2441 93.2314 84.6745 92.2598 84.0294 92.585C82.5651 93.3197 80.5734 93.1238 79.2089 92.3034C78.227 91.7049 77.3191 90.9925 76.5043 90.1811C75.7363 89.4246 75.3036 88.4518 74.9683 87.4445C74.3336 85.5085 74.134 83.4563 74.3835 81.4343C74.6331 79.4122 75.3258 77.4702 76.4121 75.7466C76.7961 75.1322 75.8272 74.5677 75.4406 75.1783L75.4355 75.168Z" fill="#112870"/>
<path d="M88.2213 70.8698C86.1835 65.6102 80.5246 62.8288 75.068 63.3318C70.7838 63.7274 67.1665 66.185 64.7525 69.6794C59.4673 77.3286 59.3099 89.7587 66.3934 96.393C68.9921 98.8159 72.411 100.166 75.964 100.173C79.5169 100.137 82.9215 98.7438 85.4795 96.2778C86.0017 95.7747 85.2056 94.9786 84.6833 95.4816C80.2558 99.7414 73.3438 100.165 68.3736 96.5786C64.2456 93.5962 62.2731 88.2982 62.1016 83.3485C61.8456 75.8925 65.4104 66.6726 73.3874 64.7411C78.7198 63.4496 85.0661 65.824 87.1358 71.168C87.3918 71.8362 88.4837 71.552 88.2213 70.8685V70.8698Z" fill="#112870"/>
<path d="M55.6478 111.263C55.395 112.79 55.0292 114.296 54.5534 115.768C54.3137 116.505 54.0466 117.23 53.7522 117.944C53.4718 118.627 53.1864 119.608 52.6885 120.157C52.1906 120.707 50.9592 120.589 50.2667 120.591C49.4373 120.591 48.6027 120.57 47.7771 120.557L42.6571 120.474C41.9326 120.461 41.9326 121.586 42.6571 121.599L48.3966 121.691C49.3054 121.706 50.2206 121.747 51.1294 121.691C51.8642 121.649 52.7512 121.623 53.3298 121.108C53.9083 120.594 54.1605 119.788 54.4562 119.121C54.8043 118.333 55.1243 117.533 55.4098 116.722C55.9963 115.041 56.4374 113.313 56.7282 111.557C56.8472 110.849 55.763 110.545 55.6427 111.258L55.6478 111.263Z" fill="#112870"/>
<path d="M15.9309 112.791C17.3184 113.677 19.2589 113.528 20.8371 113.582C22.7998 113.649 24.7624 113.644 26.7251 113.564C27.4726 113.533 28.3545 113.588 29.0393 113.23C29.6384 112.916 29.9673 112.353 30.2003 111.741C30.8608 110.003 31.3651 108.189 31.9398 106.422C32.1638 105.732 31.0784 105.436 30.8544 106.124C30.3492 107.679 29.8432 109.234 29.3363 110.789C29.1456 111.374 28.9869 112.09 28.3328 112.302C27.6211 112.532 26.7123 112.443 25.9737 112.466C24.3456 112.515 22.7166 112.515 21.0867 112.466C20.2509 112.44 19.4163 112.403 18.5817 112.348C17.8457 112.3 17.1328 112.22 16.4979 111.82C15.8861 111.428 15.3203 112.402 15.9296 112.791H15.9309Z" fill="#112870"/>
<path d="M83.4931 120.803C85.0215 121.933 86.9799 121.955 88.8 121.865C89.8586 121.814 90.9159 121.754 91.9744 121.697C92.9984 121.644 94.1338 121.715 95.1207 121.418C96.9472 120.869 97.4861 118.584 98.0941 117.012C98.9184 114.879 99.6369 112.713 100.25 110.513C100.444 109.814 99.3536 109.516 99.1642 110.213C98.6368 112.099 98.0344 113.961 97.3568 115.799C97.0163 116.716 96.6579 117.628 96.2778 118.529C95.9283 119.36 95.5738 120.164 94.6138 120.385C93.696 120.598 92.6618 120.535 91.7235 120.585C90.7469 120.636 89.7715 120.692 88.7962 120.74C87.1603 120.818 85.4336 120.849 84.0602 119.831C83.4778 119.401 82.9159 120.376 83.4919 120.803H83.4931Z" fill="#112870"/>
<path d="M81.4004 89.5347C81.4004 89.5347 81.2058 85.088 86.7764 85.1827C91.2206 85.2582 99.3998 90.6419 101.77 83.9347C104.141 77.2275 93.0663 75.1027 88.1281 76.4608C83.1898 77.8189 77.8241 77.6819 76.818 73.4592C75.8119 69.2365 84.8244 69.1072 85.6026 67.1872C86.354 65.1251 90.5076 62.9939 94.4436 63.1091C96.2087 61.1405 101.075 59.0131 108.183 63.5187C115.291 68.0243 124.969 72.96 124.8 74.7008C124.631 76.4416 114.451 101.837 110.354 111.853C102.716 106.811 82.3719 97.7485 81.4004 89.5347Z" fill="#FC92C3"/>
<path d="M77.856 71.4726C85.1648 67.6685 94.112 65.3171 101.892 69.2211C103.8 70.1682 105.497 71.4894 106.884 73.1059C107.237 73.5194 107.831 72.9203 107.48 72.5094C104.92 69.5053 101.286 67.607 97.4516 66.8096C93.1712 65.9136 88.7412 66.4256 84.5965 67.7171C82.1228 68.5129 79.7242 69.5255 77.4285 70.743C76.946 70.999 77.3722 71.7235 77.8535 71.4726H77.856Z" fill="#112870"/>
<path d="M94.5382 63.4125C99.6498 63.2626 104.62 65.1017 108.403 68.5427C108.804 68.9088 109.402 68.3136 109.001 67.9462C105.057 64.3497 99.8723 62.4227 94.5369 62.5702C93.9955 62.5869 93.9929 63.4317 94.5369 63.415L94.5382 63.4125Z" fill="#112870"/>
<path d="M84.7001 88.9165C85.8905 88.3379 86.839 89.7805 87.3267 90.6394C87.8528 91.5661 88.174 92.7962 87.2742 93.609C86.871 93.9738 87.4688 94.569 87.8707 94.2054C89.1264 93.0714 88.7206 91.3075 87.9436 90.025C87.1667 88.7424 85.8764 87.4099 84.2752 88.192C83.7862 88.4288 84.2137 89.1571 84.7001 88.9203V88.9165Z" fill="white"/>
<path d="M113.244 53.0509C113.293 55.7107 113.342 58.3714 113.391 61.033C113.403 61.6397 113.414 62.2468 113.424 62.8544V63.3062C113.424 63.3882 113.405 63.6301 113.446 63.3293L114.272 62.9926L114.528 63.3293C114.569 63.5763 114.541 63.4227 114.541 63.3126C114.541 63.1744 114.532 63.0349 114.528 62.8954C114.512 62.3945 114.498 61.8936 114.483 61.3926C114.43 59.686 114.375 57.9793 114.318 56.2726C114.164 51.8003 113.99 47.3267 113.727 42.8582C113.606 40.8346 113.479 38.8083 113.25 36.7936C113.222 36.5517 113.095 36.3123 112.837 36.2509C97.395 32.6144 81.4321 33.3555 65.7329 31.9578C61.7969 31.607 57.8712 31.1181 53.9864 30.3846C50.2552 29.6794 46.4024 28.8755 42.94 27.2691C39.8513 25.8342 37.0468 23.6211 35.5838 20.48C34.9067 19.031 34.5598 17.3747 34.7441 15.776C34.9681 13.8765 36.0241 12.4992 37.6408 11.552C44.1086 7.73248 52.1611 7.53408 59.4558 7.328C67.7331 7.09419 76.0105 7.26486 84.2878 7.84C92.371 8.39808 100.496 9.248 108.48 10.6867C111.798 11.2858 115.283 12.1997 117.751 14.6419C120.038 16.9062 121.154 20.1293 121.377 23.2909C121.633 27.0093 120.673 30.6714 119.407 34.135C118.442 36.7757 117.231 39.2909 116.526 42.0186C115.213 47.0694 114.381 52.2765 113.697 57.4464C113.578 58.3488 113.467 59.2512 113.38 60.1562C113.309 60.8755 114.436 60.8717 114.505 60.1562C114.996 55.0874 115.878 50.0109 116.965 45.0394C117.468 42.7354 118.049 40.4877 118.955 38.3117C120.491 34.6163 121.951 30.8442 122.411 26.8403C122.795 23.552 122.374 20.1165 120.895 17.1302C119.391 14.0941 116.783 12.0192 113.639 10.8506C110.08 9.52192 106.146 9.13664 102.409 8.61056C98.2155 8.02091 94.0103 7.53366 89.7931 7.1488C81.3365 6.3808 72.8553 6.0352 64.3492 6.112C60.266 6.14784 56.1662 6.22592 52.0945 6.56512C48.3019 6.88 44.49 7.47264 40.9073 8.79872C39.2561 9.41056 37.5345 10.1261 36.1227 11.1949C35.4516 11.6997 34.8879 12.3333 34.4646 13.0586C34.0413 13.7839 33.7669 14.5863 33.6574 15.4189C33.1723 18.7213 34.6814 21.9917 36.8894 24.3789C39.3649 27.0541 42.7531 28.6323 46.186 29.6909C49.9761 30.8582 53.916 31.593 57.834 32.169C65.9147 33.3594 74.09 33.6858 82.2347 34.0442C90.3793 34.4026 98.5905 34.7891 106.66 36.1549C108.633 36.4885 110.596 36.8845 112.548 37.3427L112.135 36.8C112.596 40.8525 112.743 44.9485 112.923 49.0214C113.102 53.0944 113.239 57.1571 113.362 61.225C113.38 61.8035 113.397 62.3812 113.414 62.9581C113.424 63.2742 113.364 63.8131 113.712 63.9706C113.998 64.0986 114.48 64.0294 114.538 63.6352C114.648 62.8237 114.538 61.943 114.519 61.129C114.469 58.4384 114.42 55.7478 114.37 53.0573C114.358 52.3341 113.232 52.3315 113.245 53.0573L113.244 53.0509Z" fill="#112870"/>
<path d="M53.792 12.032L54.1286 24.7693C54.167 26.2144 56.4173 26.2195 56.3789 24.7693L56.0422 12.032C56.0038 10.5869 53.7536 10.5817 53.792 12.032Z" fill="#A89FFF"/>
<path d="M48.2163 15.0272L59.6723 23.8515C60.1536 24.2227 60.9318 23.9258 61.2083 23.4483C61.5488 22.8672 61.2877 22.281 60.8051 21.9123L49.3491 13.088C48.8666 12.7168 48.0883 13.0138 47.8131 13.4912C47.4739 14.0723 47.7338 14.6586 48.2176 15.0272H48.2163Z" fill="#A89FFF"/>
<path d="M50.6266 22.8352C54.2705 20.5562 57.641 17.8668 60.672 14.8198C61.696 13.7958 60.1037 12.1997 59.081 13.2288C56.1879 16.142 52.9698 18.7133 49.49 20.8922C48.265 21.6602 49.3927 23.6058 50.6253 22.8352H50.6266Z" fill="#A89FFF"/>
<path d="M75.5444 12.4966L75.8811 25.2326C75.9195 26.6778 78.1697 26.6842 78.1313 25.2326L77.7947 12.4966C77.7563 11.0515 75.506 11.0451 75.5444 12.4966Z" fill="#A89FFF"/>
<path d="M69.9688 15.4957L81.4248 24.32C81.9061 24.6912 82.6843 24.3929 82.9608 23.9155C83.3013 23.3357 83.0401 22.7481 82.5576 22.3795L71.1016 13.5475C70.619 13.1763 69.8408 13.4733 69.5656 13.9507C69.2264 14.5318 69.4862 15.1181 69.9701 15.4867L69.9688 15.4957Z" fill="#A89FFF"/>
<path d="M72.3787 23.3037C76.0253 21.0252 79.3983 18.3358 82.4318 15.2883C83.4558 14.2643 81.8635 12.6681 80.8408 13.6973C77.9477 16.6105 74.7296 19.1818 71.2497 21.3606C70.0248 22.1286 71.1524 24.0742 72.3851 23.3037H72.3787Z" fill="#A89FFF"/>
<path d="M95.7964 14.464L96.133 27.2C96.1714 28.6464 98.4217 28.6515 98.3833 27.2L98.0479 14.464C98.0095 13.0189 95.7593 13.0125 95.7977 14.464H95.7964Z" fill="#A89FFF"/>
<path d="M90.2195 17.4643L101.677 26.2899C102.158 26.6611 102.936 26.3642 103.213 25.8867C103.553 25.3056 103.292 24.7194 102.81 24.3507L91.3536 15.5251C90.871 15.1539 90.0928 15.4522 89.8176 15.9296C89.4784 16.5094 89.7382 17.097 90.2208 17.4656L90.2195 17.4643Z" fill="#A89FFF"/>
<path d="M92.6312 25.2723C96.2758 22.9938 99.6468 20.3044 102.678 17.2569C103.702 16.2329 102.108 14.6368 101.086 15.6659C98.1935 18.5797 94.9758 21.1511 91.4958 23.3293C90.2709 24.0973 91.3985 26.0429 92.6312 25.2723Z" fill="#A89FFF"/>
<path d="M116.282 19.721C118.615 23.6083 118.726 28.6042 116.549 32.5837C116.201 33.2237 117.173 33.7882 117.521 33.152C119.889 28.8243 119.794 23.3856 117.253 19.1527C116.882 18.5319 115.908 19.0976 116.282 19.721Z" fill="#112870"/>
<path d="M7.53041 24.201L11.9042 29.2672C12.3778 29.8163 13.1701 29.0112 12.699 28.4723L8.32657 23.4061C7.85297 22.857 7.06065 23.6557 7.53041 24.201Z" fill="#112870"/>
<path d="M3.20009 38.8672H6.91209C7.63657 38.8672 7.63785 37.7421 6.91209 37.7421H3.20009C2.47561 37.7421 2.47433 38.8672 3.20009 38.8672Z" fill="#112870"/>
<path d="M3.94643 53.2045C4.83878 52.2028 5.94218 51.4116 7.17715 50.8877C7.84019 50.6035 7.26803 49.6346 6.60883 49.9162C5.28853 50.4843 4.10884 51.335 3.15283 52.4083C2.67155 52.9472 3.46515 53.7447 3.94899 53.2045H3.94643Z" fill="#112870"/>
</svg>
